<?xml version="1.0" encoding="UTF-8" standalone="no"?>
<!DOCTYPE svg PUBLIC "-//W3C//DTD SVG 1.1//EN"
 "http://www.w3.org/Graphics/SVG/1.1/DTD/svg11.dtd">
<!-- Generated by graphviz version 7.0.1 (20221109.1506)
 -->
<!-- Pages: 1 -->
<svg width="1227pt" height="764pt"
 viewBox="0.00 0.00 1226.81 764.00" xmlns="http://www.w3.org/2000/svg" xmlns:xlink="http://www.w3.org/1999/xlink">
<g id="graph0" class="graph" transform="scale(1 1) rotate(0) translate(4 760)">
<polygon fill="white" stroke="none" points="-4,4 -4,-760 1222.81,-760 1222.81,4 -4,4"/>
<!-- [root] aws_ebs_volume.disk (expand) -->
<g id="node1" class="node">
<title>[root] aws_ebs_volume.disk (expand)</title>
<polygon fill="none" stroke="black" points="1003.27,-540 866.27,-540 866.27,-504 1003.27,-504 1003.27,-540"/>
<text text-anchor="middle" x="934.77" y="-518.3" font-family="Times,serif" font-size="14.00">aws_ebs_volume.disk</text>
</g>
<!-- [root] aws_instance.EC202 (expand) -->
<g id="node3" class="node">
<title>[root] aws_instance.EC202 (expand)</title>
<polygon fill="none" stroke="black" points="788.77,-468 658.77,-468 658.77,-432 788.77,-432 788.77,-468"/>
<text text-anchor="middle" x="723.77" y="-446.3" font-family="Times,serif" font-size="14.00">aws_instance.EC202</text>
</g>
<!-- [root] aws_ebs_volume.disk (expand)&#45;&gt;[root] aws_instance.EC202 (expand) -->
<g id="edge1" class="edge">
<title>[root] aws_ebs_volume.disk (expand)&#45;&gt;[root] aws_instance.EC202 (expand)</title>
<path fill="none" stroke="black" d="M882.07,-503.52C853.26,-493.96 817.37,-482.05 787.06,-472"/>
<polygon fill="black" stroke="black" points="788.19,-468.69 777.6,-468.86 785.99,-475.33 788.19,-468.69"/>
</g>
<!-- [root] local.EC202&#45;disk (expand) -->
<g id="node23" class="node">
<title>[root] local.EC202&#45;disk (expand)</title>
<ellipse fill="none" stroke="black" cx="934.77" cy="-450" rx="128.08" ry="18"/>
<text text-anchor="middle" x="934.77" y="-446.3" font-family="Times,serif" font-size="14.00">[root] local.EC202&#45;disk (expand)</text>
</g>
<!-- [root] aws_ebs_volume.disk (expand)&#45;&gt;[root] local.EC202&#45;disk (expand) -->
<g id="edge2" class="edge">
<title>[root] aws_ebs_volume.disk (expand)&#45;&gt;[root] local.EC202&#45;disk (expand)</title>
<path fill="none" stroke="black" d="M934.77,-503.7C934.77,-496.41 934.77,-487.73 934.77,-479.54"/>
<polygon fill="black" stroke="black" points="938.27,-479.62 934.77,-469.62 931.27,-479.62 938.27,-479.62"/>
</g>
<!-- [root] local.enable_disk (expand) -->
<g id="node24" class="node">
<title>[root] local.enable_disk (expand)</title>
<ellipse fill="none" stroke="black" cx="1090.77" cy="-378" rx="128.08" ry="18"/>
<text text-anchor="middle" x="1090.77" y="-374.3" font-family="Times,serif" font-size="14.00">[root] local.enable_disk (expand)</text>
</g>
<!-- [root] aws_ebs_volume.disk (expand)&#45;&gt;[root] local.enable_disk (expand) -->
<g id="edge3" class="edge">
<title>[root] aws_ebs_volume.disk (expand)&#45;&gt;[root] local.enable_disk (expand)</title>
<path fill="none" stroke="black" d="M1003.75,-508.59C1028.48,-500.83 1054.48,-488.28 1071.77,-468 1085.96,-451.35 1090.36,-426.68 1091.41,-407.53"/>
<polygon fill="black" stroke="black" points="1094.9,-407.75 1091.64,-397.67 1087.9,-407.59 1094.9,-407.75"/>
</g>
<!-- [root] aws_instance.EC201 (expand) -->
<g id="node2" class="node">
<title>[root] aws_instance.EC201 (expand)</title>
<polygon fill="none" stroke="black" points="391.77,-396 261.77,-396 261.77,-360 391.77,-360 391.77,-396"/>
<text text-anchor="middle" x="326.77" y="-374.3" font-family="Times,serif" font-size="14.00">aws_instance.EC201</text>
</g>
<!-- [root] aws_security_group.tls (expand) -->
<g id="node7" class="node">
<title>[root] aws_security_group.tls (expand)</title>
<polygon fill="none" stroke="black" points="267.77,-324 125.77,-324 125.77,-288 267.77,-288 267.77,-324"/>
<text text-anchor="middle" x="196.77" y="-302.3" font-family="Times,serif" font-size="14.00">aws_security_group.tls</text>
</g>
<!-- [root] aws_instance.EC201 (expand)&#45;&gt;[root] aws_security_group.tls (expand) -->
<g id="edge4" class="edge">
<title>[root] aws_instance.EC201 (expand)&#45;&gt;[root] aws_security_group.tls (expand)</title>
<path fill="none" stroke="black" d="M294.3,-359.52C277.5,-350.47 256.79,-339.32 238.78,-329.62"/>
<polygon fill="black" stroke="black" points="240.62,-326.64 230.16,-324.98 237.3,-332.8 240.62,-326.64"/>
</g>
<!-- [root] aws_subnet.nlp (expand) -->
<g id="node8" class="node">
<title>[root] aws_subnet.nlp (expand)</title>
<polygon fill="none" stroke="black" points="387.27,-324 286.27,-324 286.27,-288 387.27,-288 387.27,-324"/>
<text text-anchor="middle" x="336.77" y="-302.3" font-family="Times,serif" font-size="14.00">aws_subnet.nlp</text>
</g>
<!-- [root] aws_instance.EC201 (expand)&#45;&gt;[root] aws_subnet.nlp (expand) -->
<g id="edge5" class="edge">
<title>[root] aws_instance.EC201 (expand)&#45;&gt;[root] aws_subnet.nlp (expand)</title>
<path fill="none" stroke="black" d="M329.24,-359.7C330.29,-352.32 331.55,-343.52 332.73,-335.25"/>
<polygon fill="black" stroke="black" points="336.16,-336 334.11,-325.6 329.23,-335.01 336.16,-336"/>
</g>
<!-- [root] local.EC201 (expand) -->
<g id="node25" class="node">
<title>[root] local.EC201 (expand)</title>
<ellipse fill="none" stroke="black" cx="582.77" cy="-306" rx="110.48" ry="18"/>
<text text-anchor="middle" x="582.77" y="-302.3" font-family="Times,serif" font-size="14.00">[root] local.EC201 (expand)</text>
</g>
<!-- [root] aws_instance.EC201 (expand)&#45;&gt;[root] local.EC201 (expand) -->
<g id="edge6" class="edge">
<title>[root] aws_instance.EC201 (expand)&#45;&gt;[root] local.EC201 (expand)</title>
<path fill="none" stroke="black" d="M390.71,-359.52C429.29,-348.97 478.33,-335.56 517.2,-324.93"/>
<polygon fill="black" stroke="black" points="517.69,-328.42 526.42,-322.41 515.85,-321.67 517.69,-328.42"/>
</g>
<!-- [root] aws_instance.EC202 (expand)&#45;&gt;[root] aws_instance.EC201 (expand) -->
<g id="edge7" class="edge">
<title>[root] aws_instance.EC202 (expand)&#45;&gt;[root] aws_instance.EC201 (expand)</title>
<path fill="none" stroke="black" d="M658.66,-437.52C588.67,-425.18 477.5,-405.58 403.36,-392.5"/>
<polygon fill="black" stroke="black" points="404.19,-389.1 393.74,-390.81 402.98,-395.99 404.19,-389.1"/>
</g>
<!-- [root] local.EC202 (expand) -->
<g id="node26" class="node">
<title>[root] local.EC202 (expand)</title>
<ellipse fill="none" stroke="black" cx="754.77" cy="-378" rx="110.48" ry="18"/>
<text text-anchor="middle" x="754.77" y="-374.3" font-family="Times,serif" font-size="14.00">[root] local.EC202 (expand)</text>
</g>
<!-- [root] aws_instance.EC202 (expand)&#45;&gt;[root] local.EC202 (expand) -->
<g id="edge8" class="edge">
<title>[root] aws_instance.EC202 (expand)&#45;&gt;[root] local.EC202 (expand)</title>
<path fill="none" stroke="black" d="M731.43,-431.7C734.81,-424.07 738.86,-414.92 742.64,-406.4"/>
<polygon fill="black" stroke="black" points="745.73,-408.05 746.58,-397.49 739.33,-405.21 745.73,-408.05"/>
</g>
<!-- [root] aws_route53_record.EC201 (expand) -->
<g id="node4" class="node">
<title>[root] aws_route53_record.EC201 (expand)</title>
<polygon fill="none" stroke="black" points="447.77,-540 279.77,-540 279.77,-504 447.77,-504 447.77,-540"/>
<text text-anchor="middle" x="363.77" y="-518.3" font-family="Times,serif" font-size="14.00">aws_route53_record.EC201</text>
</g>
<!-- [root] aws_route53_record.EC201 (expand)&#45;&gt;[root] aws_instance.EC201 (expand) -->
<g id="edge9" class="edge">
<title>[root] aws_route53_record.EC201 (expand)&#45;&gt;[root] aws_instance.EC201 (expand)</title>
<path fill="none" stroke="black" d="M357.42,-503.97C353.71,-493.66 349.12,-480.18 345.77,-468 340.24,-447.95 335.38,-424.99 331.95,-407.41"/>
<polygon fill="black" stroke="black" points="335.41,-406.86 330.1,-397.69 328.53,-408.17 335.41,-406.86"/>
</g>
<!-- [root] aws_route53_zone.main (expand) -->
<g id="node6" class="node">
<title>[root] aws_route53_zone.main (expand)</title>
<polygon fill="none" stroke="black" points="504.27,-468 355.27,-468 355.27,-432 504.27,-432 504.27,-468"/>
<text text-anchor="middle" x="429.77" y="-446.3" font-family="Times,serif" font-size="14.00">aws_route53_zone.main</text>
</g>
<!-- [root] aws_route53_record.EC201 (expand)&#45;&gt;[root] aws_route53_zone.main (expand) -->
<g id="edge10" class="edge">
<title>[root] aws_route53_record.EC201 (expand)&#45;&gt;[root] aws_route53_zone.main (expand)</title>
<path fill="none" stroke="black" d="M380.08,-503.7C387.84,-495.47 397.26,-485.48 405.8,-476.42"/>
<polygon fill="black" stroke="black" points="408.29,-478.88 412.6,-469.21 403.2,-474.08 408.29,-478.88"/>
</g>
<!-- [root] aws_route53_record.EC202 (expand) -->
<g id="node5" class="node">
<title>[root] aws_route53_record.EC202 (expand)</title>
<polygon fill="none" stroke="black" points="633.77,-540 465.77,-540 465.77,-504 633.77,-504 633.77,-540"/>
<text text-anchor="middle" x="549.77" y="-518.3" font-family="Times,serif" font-size="14.00">aws_route53_record.EC202</text>
</g>
<!-- [root] aws_route53_record.EC202 (expand)&#45;&gt;[root] aws_instance.EC202 (expand) -->
<g id="edge11" class="edge">
<title>[root] aws_route53_record.EC202 (expand)&#45;&gt;[root] aws_instance.EC202 (expand)</title>
<path fill="none" stroke="black" d="M593.23,-503.52C616.46,-494.17 645.28,-482.57 669.93,-472.66"/>
<polygon fill="black" stroke="black" points="671.19,-475.93 679.16,-468.95 668.57,-469.43 671.19,-475.93"/>
</g>
<!-- [root] aws_route53_record.EC202 (expand)&#45;&gt;[root] aws_route53_zone.main (expand) -->
<g id="edge12" class="edge">
<title>[root] aws_route53_record.EC202 (expand)&#45;&gt;[root] aws_route53_zone.main (expand)</title>
<path fill="none" stroke="black" d="M519.8,-503.52C504.5,-494.6 485.71,-483.63 469.25,-474.03"/>
<polygon fill="black" stroke="black" points="471.07,-471.04 460.67,-469.02 467.54,-477.09 471.07,-471.04"/>
</g>
<!-- [root] aws_vpc.main (expand) -->
<g id="node10" class="node">
<title>[root] aws_vpc.main (expand)</title>
<polygon fill="none" stroke="black" points="342.27,-252 247.27,-252 247.27,-216 342.27,-216 342.27,-252"/>
<text text-anchor="middle" x="294.77" y="-230.3" font-family="Times,serif" font-size="14.00">aws_vpc.main</text>
</g>
<!-- [root] aws_route53_zone.main (expand)&#45;&gt;[root] aws_vpc.main (expand) -->
<g id="edge13" class="edge">
<title>[root] aws_route53_zone.main (expand)&#45;&gt;[root] aws_vpc.main (expand)</title>
<path fill="none" stroke="black" d="M430.67,-431.55C431.42,-399.72 428.7,-331.51 395.77,-288 384.94,-273.69 369.11,-262.87 353.19,-254.86"/>
<polygon fill="black" stroke="black" points="354.68,-251.69 344.14,-250.63 351.72,-258.03 354.68,-251.69"/>
</g>
<!-- [root] aws_security_group.tls (expand)&#45;&gt;[root] aws_vpc.main (expand) -->
<g id="edge14" class="edge">
<title>[root] aws_security_group.tls (expand)&#45;&gt;[root] aws_vpc.main (expand)</title>
<path fill="none" stroke="black" d="M221.24,-287.52C233.38,-278.85 248.22,-268.25 261.38,-258.85"/>
<polygon fill="black" stroke="black" points="263.27,-261.8 269.37,-253.14 259.2,-256.1 263.27,-261.8"/>
</g>
<!-- [root] aws_subnet.nlp (expand)&#45;&gt;[root] aws_vpc.main (expand) -->
<g id="edge15" class="edge">
<title>[root] aws_subnet.nlp (expand)&#45;&gt;[root] aws_vpc.main (expand)</title>
<path fill="none" stroke="black" d="M326.39,-287.7C321.71,-279.9 316.07,-270.51 310.87,-261.83"/>
<polygon fill="black" stroke="black" points="313.96,-260.18 305.81,-253.4 307.95,-263.78 313.96,-260.18"/>
</g>
<!-- [root] aws_volume_attachment.disk_att (expand) -->
<g id="node9" class="node">
<title>[root] aws_volume_attachment.disk_att (expand)</title>
<polygon fill="none" stroke="black" points="705.27,-612 506.27,-612 506.27,-576 705.27,-576 705.27,-612"/>
<text text-anchor="middle" x="605.77" y="-590.3" font-family="Times,serif" font-size="14.00">aws_volume_attachment.disk_att</text>
</g>
<!-- [root] aws_volume_attachment.disk_att (expand)&#45;&gt;[root] aws_ebs_volume.disk (expand) -->
<g id="edge16" class="edge">
<title>[root] aws_volume_attachment.disk_att (expand)&#45;&gt;[root] aws_ebs_volume.disk (expand)</title>
<path fill="none" stroke="black" d="M687.94,-575.52C738.9,-564.67 804.06,-550.81 854.64,-540.05"/>
<polygon fill="black" stroke="black" points="855.32,-543.48 864.37,-537.98 853.86,-536.64 855.32,-543.48"/>
</g>
<!-- [root] provider[&quot;registry.terraform.io/hashicorp/aws&quot;] -->
<g id="node15" class="node">
<title>[root] provider[&quot;registry.terraform.io/hashicorp/aws&quot;]</title>
<polygon fill="none" stroke="black" points="252.77,-180 0.23,-162 252.77,-144 505.3,-162 252.77,-180"/>
<text text-anchor="middle" x="252.77" y="-158.3" font-family="Times,serif" font-size="14.00">provider[&quot;registry.terraform.io/hashicorp/aws&quot;]</text>
</g>
<!-- [root] aws_vpc.main (expand)&#45;&gt;[root] provider[&quot;registry.terraform.io/hashicorp/aws&quot;] -->
<g id="edge17" class="edge">
<title>[root] aws_vpc.main (expand)&#45;&gt;[root] provider[&quot;registry.terraform.io/hashicorp/aws&quot;]</title>
<path fill="none" stroke="black" d="M284.39,-215.7C279.64,-207.78 273.9,-198.23 268.63,-189.44"/>
<polygon fill="black" stroke="black" points="271.67,-187.69 263.52,-180.92 265.66,-191.3 271.67,-187.69"/>
</g>
<!-- [root] output.EC201&#45;instance_id -->
<g id="node11" class="node">
<title>[root] output.EC201&#45;instance_id</title>
<polygon fill="none" stroke="black" points="172.77,-612 20.77,-612 20.77,-576 178.77,-576 178.77,-606 172.77,-612"/>
<polyline fill="none" stroke="black" points="172.77,-612 172.77,-606"/>
<polyline fill="none" stroke="black" points="178.77,-606 172.77,-606"/>
<text text-anchor="middle" x="99.77" y="-590.3" font-family="Times,serif" font-size="14.00">output.EC201&#45;instance_id</text>
</g>
<!-- [root] output.EC201&#45;instance_id&#45;&gt;[root] aws_instance.EC201 (expand) -->
<g id="edge32" class="edge">
<title>[root] output.EC201&#45;instance_id&#45;&gt;[root] aws_instance.EC201 (expand)</title>
<path fill="none" stroke="black" d="M117.96,-575.85C157.97,-538.13 253.76,-447.83 300.38,-403.88"/>
<polygon fill="black" stroke="black" points="302.51,-406.68 307.39,-397.27 297.71,-401.58 302.51,-406.68"/>
</g>
<!-- [root] output.EC201&#45;private_ip -->
<g id="node12" class="node">
<title>[root] output.EC201&#45;private_ip</title>
<polygon fill="none" stroke="black" points="342.77,-612 196.77,-612 196.77,-576 348.77,-576 348.77,-606 342.77,-612"/>
<polyline fill="none" stroke="black" points="342.77,-612 342.77,-606"/>
<polyline fill="none" stroke="black" points="348.77,-606 342.77,-606"/>
<text text-anchor="middle" x="272.77" y="-590.3" font-family="Times,serif" font-size="14.00">output.EC201&#45;private_ip</text>
</g>
<!-- [root] output.EC201&#45;private_ip&#45;&gt;[root] aws_instance.EC201 (expand) -->
<g id="edge33" class="edge">
<title>[root] output.EC201&#45;private_ip&#45;&gt;[root] aws_instance.EC201 (expand)</title>
<path fill="none" stroke="black" d="M270.04,-575.72C267.73,-557.62 265.53,-528.48 270.77,-504 278.38,-468.39 296.92,-430.66 310.59,-406.08"/>
<polygon fill="black" stroke="black" points="313.45,-408.14 315.36,-397.72 307.37,-404.67 313.45,-408.14"/>
</g>
<!-- [root] output.EC202&#45;instance_id -->
<g id="node13" class="node">
<title>[root] output.EC202&#45;instance_id</title>
<polygon fill="none" stroke="black" points="803.77,-540 651.77,-540 651.77,-504 809.77,-504 809.77,-534 803.77,-540"/>
<polyline fill="none" stroke="black" points="803.77,-540 803.77,-534"/>
<polyline fill="none" stroke="black" points="809.77,-534 803.77,-534"/>
<text text-anchor="middle" x="730.77" y="-518.3" font-family="Times,serif" font-size="14.00">output.EC202&#45;instance_id</text>
</g>
<!-- [root] output.EC202&#45;instance_id&#45;&gt;[root] aws_instance.EC202 (expand) -->
<g id="edge34" class="edge">
<title>[root] output.EC202&#45;instance_id&#45;&gt;[root] aws_instance.EC202 (expand)</title>
<path fill="none" stroke="black" d="M729.04,-503.7C728.31,-496.41 727.44,-487.73 726.62,-479.54"/>
<polygon fill="black" stroke="black" points="730.11,-479.21 725.63,-469.61 723.14,-479.91 730.11,-479.21"/>
</g>
<!-- [root] output.EC202&#45;private_ip -->
<g id="node14" class="node">
<title>[root] output.EC202&#45;private_ip</title>
<polygon fill="none" stroke="black" points="907.77,-612 761.77,-612 761.77,-576 913.77,-576 913.77,-606 907.77,-612"/>
<polyline fill="none" stroke="black" points="907.77,-612 907.77,-606"/>
<polyline fill="none" stroke="black" points="913.77,-606 907.77,-606"/>
<text text-anchor="middle" x="837.77" y="-590.3" font-family="Times,serif" font-size="14.00">output.EC202&#45;private_ip</text>
</g>
<!-- [root] output.EC202&#45;private_ip&#45;&gt;[root] aws_instance.EC202 (expand) -->
<g id="edge35" class="edge">
<title>[root] output.EC202&#45;private_ip&#45;&gt;[root] aws_instance.EC202 (expand)</title>
<path fill="none" stroke="black" d="M838.15,-575.56C837.71,-556.26 834.35,-525.1 818.77,-504 809.47,-491.41 796.23,-481.41 782.58,-473.66"/>
<polygon fill="black" stroke="black" points="784.44,-470.68 773.96,-469.1 781.17,-476.87 784.44,-470.68"/>
</g>
<!-- [root] var.aws_region -->
<g id="node18" class="node">
<title>[root] var.aws_region</title>
<polygon fill="none" stroke="black" points="296.27,-108 203.27,-108 203.27,-72 302.27,-72 302.27,-102 296.27,-108"/>
<polyline fill="none" stroke="black" points="296.27,-108 296.27,-102"/>
<polyline fill="none" stroke="black" points="302.27,-102 296.27,-102"/>
<text text-anchor="middle" x="252.77" y="-86.3" font-family="Times,serif" font-size="14.00">var.aws_region</text>
</g>
<!-- [root] provider[&quot;registry.terraform.io/hashicorp/aws&quot;]&#45;&gt;[root] var.aws_region -->
<g id="edge39" class="edge">
<title>[root] provider[&quot;registry.terraform.io/hashicorp/aws&quot;]&#45;&gt;[root] var.aws_region</title>
<path fill="none" stroke="black" d="M252.77,-143.7C252.77,-136.41 252.77,-127.73 252.77,-119.54"/>
<polygon fill="black" stroke="black" points="256.27,-119.62 252.77,-109.62 249.27,-119.62 256.27,-119.62"/>
</g>
<!-- [root] var.EC201 -->
<g id="node16" class="node">
<title>[root] var.EC201</title>
<polygon fill="none" stroke="black" points="706.77,-108 638.77,-108 638.77,-72 712.77,-72 712.77,-102 706.77,-108"/>
<polyline fill="none" stroke="black" points="706.77,-108 706.77,-102"/>
<polyline fill="none" stroke="black" points="712.77,-102 706.77,-102"/>
<text text-anchor="middle" x="675.77" y="-86.3" font-family="Times,serif" font-size="14.00">var.EC201</text>
</g>
<!-- [root] var.EC202 -->
<g id="node17" class="node">
<title>[root] var.EC202</title>
<polygon fill="none" stroke="black" points="1121.77,-180 1053.77,-180 1053.77,-144 1127.77,-144 1127.77,-174 1121.77,-180"/>
<polyline fill="none" stroke="black" points="1121.77,-180 1121.77,-174"/>
<polyline fill="none" stroke="black" points="1127.77,-174 1121.77,-174"/>
<text text-anchor="middle" x="1090.77" y="-158.3" font-family="Times,serif" font-size="14.00">var.EC202</text>
</g>
<!-- [root] var.environment -->
<g id="node19" class="node">
<title>[root] var.environment</title>
<polygon fill="none" stroke="black" points="830.77,-108 730.77,-108 730.77,-72 836.77,-72 836.77,-102 830.77,-108"/>
<polyline fill="none" stroke="black" points="830.77,-108 830.77,-102"/>
<polyline fill="none" stroke="black" points="836.77,-102 830.77,-102"/>
<text text-anchor="middle" x="783.77" y="-86.3" font-family="Times,serif" font-size="14.00">var.environment</text>
</g>
<!-- [root] var.security_groups -->
<g id="node20" class="node">
<title>[root] var.security_groups</title>
<polygon fill="none" stroke="black" points="917.27,-684 800.27,-684 800.27,-648 923.27,-648 923.27,-678 917.27,-684"/>
<polyline fill="none" stroke="black" points="917.27,-684 917.27,-678"/>
<polyline fill="none" stroke="black" points="923.27,-678 917.27,-678"/>
<text text-anchor="middle" x="861.77" y="-662.3" font-family="Times,serif" font-size="14.00">var.security_groups</text>
</g>
<!-- [root] var.subnet_id -->
<g id="node21" class="node">
<title>[root] var.subnet_id</title>
<polygon fill="none" stroke="black" points="1024.27,-684 941.27,-684 941.27,-648 1030.27,-648 1030.27,-678 1024.27,-684"/>
<polyline fill="none" stroke="black" points="1024.27,-684 1024.27,-678"/>
<polyline fill="none" stroke="black" points="1030.27,-678 1024.27,-678"/>
<text text-anchor="middle" x="985.77" y="-662.3" font-family="Times,serif" font-size="14.00">var.subnet_id</text>
</g>
<!-- [root] var.team -->
<g id="node22" class="node">
<title>[root] var.team</title>
<polygon fill="none" stroke="black" points="712.77,-36 654.77,-36 654.77,0 718.77,0 718.77,-30 712.77,-36"/>
<polyline fill="none" stroke="black" points="712.77,-36 712.77,-30"/>
<polyline fill="none" stroke="black" points="718.77,-30 712.77,-30"/>
<text text-anchor="middle" x="686.77" y="-14.3" font-family="Times,serif" font-size="14.00">var.team</text>
</g>
<!-- [root] local.slugbuild2 (expand) -->
<g id="node28" class="node">
<title>[root] local.slugbuild2 (expand)</title>
<ellipse fill="none" stroke="black" cx="923.77" cy="-306" rx="123.48" ry="18"/>
<text text-anchor="middle" x="923.77" y="-302.3" font-family="Times,serif" font-size="14.00">[root] local.slugbuild2 (expand)</text>
</g>
<!-- [root] local.EC202&#45;disk (expand)&#45;&gt;[root] local.slugbuild2 (expand) -->
<g id="edge20" class="edge">
<title>[root] local.EC202&#45;disk (expand)&#45;&gt;[root] local.slugbuild2 (expand)</title>
<path fill="none" stroke="black" d="M933.42,-431.59C931.56,-407.61 928.19,-364.14 925.97,-335.42"/>
<polygon fill="black" stroke="black" points="929.47,-335.32 925.21,-325.62 922.49,-335.86 929.47,-335.32"/>
</g>
<!-- [root] local.enable_disk (expand)&#45;&gt;[root] var.EC202 -->
<g id="edge21" class="edge">
<title>[root] local.enable_disk (expand)&#45;&gt;[root] var.EC202</title>
<path fill="none" stroke="black" d="M1090.77,-359.85C1090.77,-323.14 1090.77,-236.66 1090.77,-191.53"/>
<polygon fill="black" stroke="black" points="1094.27,-191.75 1090.77,-181.75 1087.27,-191.75 1094.27,-191.75"/>
</g>
<!-- [root] local.slugbuild1 (expand) -->
<g id="node27" class="node">
<title>[root] local.slugbuild1 (expand)</title>
<ellipse fill="none" stroke="black" cx="601.77" cy="-234" rx="123.48" ry="18"/>
<text text-anchor="middle" x="601.77" y="-230.3" font-family="Times,serif" font-size="14.00">[root] local.slugbuild1 (expand)</text>
</g>
<!-- [root] local.EC201 (expand)&#45;&gt;[root] local.slugbuild1 (expand) -->
<g id="edge18" class="edge">
<title>[root] local.EC201 (expand)&#45;&gt;[root] local.slugbuild1 (expand)</title>
<path fill="none" stroke="black" d="M587.46,-287.7C589.49,-280.24 591.91,-271.32 594.18,-262.97"/>
<polygon fill="black" stroke="black" points="597.49,-264.13 596.73,-253.57 590.73,-262.3 597.49,-264.13"/>
</g>
<!-- [root] local.EC202 (expand)&#45;&gt;[root] local.slugbuild2 (expand) -->
<g id="edge19" class="edge">
<title>[root] local.EC202 (expand)&#45;&gt;[root] local.slugbuild2 (expand)</title>
<path fill="none" stroke="black" d="M793.97,-360.76C817.6,-350.98 847.94,-338.41 873.35,-327.88"/>
<polygon fill="black" stroke="black" points="874.61,-331.15 882.51,-324.09 871.93,-324.68 874.61,-331.15"/>
</g>
<!-- [root] local.sluglist1 (expand) -->
<g id="node31" class="node">
<title>[root] local.sluglist1 (expand)</title>
<ellipse fill="none" stroke="black" cx="639.77" cy="-162" rx="116.18" ry="18"/>
<text text-anchor="middle" x="639.77" y="-158.3" font-family="Times,serif" font-size="14.00">[root] local.sluglist1 (expand)</text>
</g>
<!-- [root] local.slugbuild1 (expand)&#45;&gt;[root] local.sluglist1 (expand) -->
<g id="edge24" class="edge">
<title>[root] local.slugbuild1 (expand)&#45;&gt;[root] local.sluglist1 (expand)</title>
<path fill="none" stroke="black" d="M611.16,-215.7C615.35,-207.98 620.38,-198.71 625.05,-190.11"/>
<polygon fill="black" stroke="black" points="628.07,-191.89 629.76,-181.43 621.91,-188.55 628.07,-191.89"/>
</g>
<!-- [root] local.sluglist2 (expand) -->
<g id="node32" class="node">
<title>[root] local.sluglist2 (expand)</title>
<ellipse fill="none" stroke="black" cx="923.77" cy="-234" rx="116.18" ry="18"/>
<text text-anchor="middle" x="923.77" y="-230.3" font-family="Times,serif" font-size="14.00">[root] local.sluglist2 (expand)</text>
</g>
<!-- [root] local.slugbuild2 (expand)&#45;&gt;[root] local.sluglist2 (expand) -->
<g id="edge25" class="edge">
<title>[root] local.slugbuild2 (expand)&#45;&gt;[root] local.sluglist2 (expand)</title>
<path fill="none" stroke="black" d="M923.77,-287.7C923.77,-280.41 923.77,-271.73 923.77,-263.54"/>
<polygon fill="black" stroke="black" points="927.27,-263.62 923.77,-253.62 920.27,-263.62 927.27,-263.62"/>
</g>
<!-- [root] local.owner1 (expand) -->
<g id="node29" class="node">
<title>[root] local.owner1 (expand)</title>
<ellipse fill="none" stroke="black" cx="508.77" cy="-90" rx="112.38" ry="18"/>
<text text-anchor="middle" x="508.77" y="-86.3" font-family="Times,serif" font-size="14.00">[root] local.owner1 (expand)</text>
</g>
<!-- [root] local.owner1 (expand)&#45;&gt;[root] var.team -->
<g id="edge22" class="edge">
<title>[root] local.owner1 (expand)&#45;&gt;[root] var.team</title>
<path fill="none" stroke="black" d="M549.61,-72.94C577.82,-61.85 615.27,-47.12 643.91,-35.85"/>
<polygon fill="black" stroke="black" points="644.99,-39.19 653.01,-32.27 642.43,-32.68 644.99,-39.19"/>
</g>
<!-- [root] local.owner2 (expand) -->
<g id="node30" class="node">
<title>[root] local.owner2 (expand)</title>
<ellipse fill="none" stroke="black" cx="923.77" cy="-162" rx="112.38" ry="18"/>
<text text-anchor="middle" x="923.77" y="-158.3" font-family="Times,serif" font-size="14.00">[root] local.owner2 (expand)</text>
</g>
<!-- [root] local.owner2 (expand)&#45;&gt;[root] var.team -->
<g id="edge23" class="edge">
<title>[root] local.owner2 (expand)&#45;&gt;[root] var.team</title>
<path fill="none" stroke="black" d="M912.89,-143.81C899.42,-123.85 874.69,-91.22 845.77,-72 810.39,-48.49 763.65,-34.56 730.01,-26.93"/>
<polygon fill="black" stroke="black" points="731.14,-23.59 720.62,-24.89 729.66,-30.43 731.14,-23.59"/>
</g>
<!-- [root] local.sluglist1 (expand)&#45;&gt;[root] var.EC201 -->
<g id="edge27" class="edge">
<title>[root] local.sluglist1 (expand)&#45;&gt;[root] var.EC201</title>
<path fill="none" stroke="black" d="M648.67,-143.7C652.63,-135.98 657.4,-126.71 661.82,-118.11"/>
<polygon fill="black" stroke="black" points="664.82,-119.94 666.28,-109.45 658.59,-116.74 664.82,-119.94"/>
</g>
<!-- [root] local.sluglist1 (expand)&#45;&gt;[root] var.environment -->
<g id="edge28" class="edge">
<title>[root] local.sluglist1 (expand)&#45;&gt;[root] var.environment</title>
<path fill="none" stroke="black" d="M673.89,-144.41C692.96,-135.14 716.98,-123.46 737.7,-113.39"/>
<polygon fill="black" stroke="black" points="739.05,-116.63 746.52,-109.11 735.99,-110.33 739.05,-116.63"/>
</g>
<!-- [root] local.sluglist1 (expand)&#45;&gt;[root] local.owner1 (expand) -->
<g id="edge26" class="edge">
<title>[root] local.sluglist1 (expand)&#45;&gt;[root] local.owner1 (expand)</title>
<path fill="none" stroke="black" d="M608.39,-144.23C590.89,-134.88 568.88,-123.12 550.01,-113.04"/>
<polygon fill="black" stroke="black" points="551.69,-109.97 541.22,-108.34 548.4,-116.14 551.69,-109.97"/>
</g>
<!-- [root] local.sluglist2 (expand)&#45;&gt;[root] var.EC202 -->
<g id="edge30" class="edge">
<title>[root] local.sluglist2 (expand)&#45;&gt;[root] var.EC202</title>
<path fill="none" stroke="black" d="M962.92,-216.59C986.8,-206.58 1017.48,-193.72 1042.8,-183.1"/>
<polygon fill="black" stroke="black" points="1044.03,-186.39 1051.9,-179.29 1041.32,-179.93 1044.03,-186.39"/>
</g>
<!-- [root] local.sluglist2 (expand)&#45;&gt;[root] var.environment -->
<g id="edge31" class="edge">
<title>[root] local.sluglist2 (expand)&#45;&gt;[root] var.environment</title>
<path fill="none" stroke="black" d="M861.77,-218.45C840.2,-210.46 817.7,-198.31 802.77,-180 789.02,-163.15 784.57,-138.69 783.38,-119.67"/>
<polygon fill="black" stroke="black" points="786.89,-119.77 783.06,-109.89 779.89,-120 786.89,-119.77"/>
</g>
<!-- [root] local.sluglist2 (expand)&#45;&gt;[root] local.owner2 (expand) -->
<g id="edge29" class="edge">
<title>[root] local.sluglist2 (expand)&#45;&gt;[root] local.owner2 (expand)</title>
<path fill="none" stroke="black" d="M923.77,-215.7C923.77,-208.41 923.77,-199.73 923.77,-191.54"/>
<polygon fill="black" stroke="black" points="927.27,-191.62 923.77,-181.62 920.27,-191.62 927.27,-191.62"/>
</g>
<!-- [root] provider[&quot;registry.terraform.io/hashicorp/aws&quot;] (close) -->
<g id="node33" class="node">
<title>[root] provider[&quot;registry.terraform.io/hashicorp/aws&quot;] (close)</title>
<ellipse fill="none" stroke="black" cx="478.77" cy="-666" rx="227.46" ry="18"/>
<text text-anchor="middle" x="478.77" y="-662.3" font-family="Times,serif" font-size="14.00">[root] provider[&quot;registry.terraform.io/hashicorp/aws&quot;] (close)</text>
</g>
<!-- [root] provider[&quot;registry.terraform.io/hashicorp/aws&quot;] (close)&#45;&gt;[root] aws_route53_record.EC201 (expand) -->
<g id="edge36" class="edge">
<title>[root] provider[&quot;registry.terraform.io/hashicorp/aws&quot;] (close)&#45;&gt;[root] aws_route53_record.EC201 (expand)</title>
<path fill="none" stroke="black" d="M464.67,-647.59C444.64,-622.86 407.83,-577.41 384.64,-548.77"/>
<polygon fill="black" stroke="black" points="387.59,-546.86 378.58,-541.29 382.15,-551.26 387.59,-546.86"/>
</g>
<!-- [root] provider[&quot;registry.terraform.io/hashicorp/aws&quot;] (close)&#45;&gt;[root] aws_route53_record.EC202 (expand) -->
<g id="edge37" class="edge">
<title>[root] provider[&quot;registry.terraform.io/hashicorp/aws&quot;] (close)&#45;&gt;[root] aws_route53_record.EC202 (expand)</title>
<path fill="none" stroke="black" d="M479.34,-647.6C480.6,-628.9 484.54,-598.78 496.77,-576 502.31,-565.68 510.5,-556.07 518.8,-547.94"/>
<polygon fill="black" stroke="black" points="520.95,-550.71 525.93,-541.36 516.2,-545.57 520.95,-550.71"/>
</g>
<!-- [root] provider[&quot;registry.terraform.io/hashicorp/aws&quot;] (close)&#45;&gt;[root] aws_volume_attachment.disk_att (expand) -->
<g id="edge38" class="edge">
<title>[root] provider[&quot;registry.terraform.io/hashicorp/aws&quot;] (close)&#45;&gt;[root] aws_volume_attachment.disk_att (expand)</title>
<path fill="none" stroke="black" d="M510.16,-647.7C526.49,-638.69 546.67,-627.57 564.28,-617.87"/>
<polygon fill="black" stroke="black" points="565.9,-620.97 572.97,-613.08 562.52,-614.84 565.9,-620.97"/>
</g>
<!-- [root] root -->
<g id="node34" class="node">
<title>[root] root</title>
<ellipse fill="none" stroke="black" cx="733.77" cy="-738" rx="47.39" ry="18"/>
<text text-anchor="middle" x="733.77" y="-734.3" font-family="Times,serif" font-size="14.00">[root] root</text>
</g>
<!-- [root] root&#45;&gt;[root] output.EC201&#45;instance_id -->
<g id="edge40" class="edge">
<title>[root] root&#45;&gt;[root] output.EC201&#45;instance_id</title>
<path fill="none" stroke="black" d="M686.88,-734.94C578.76,-729.74 314.84,-714.25 231.77,-684 191.98,-669.51 152.55,-640.5 127.29,-619.52"/>
<polygon fill="black" stroke="black" points="129.7,-616.98 119.8,-613.18 125.17,-622.32 129.7,-616.98"/>
</g>
<!-- [root] root&#45;&gt;[root] output.EC201&#45;private_ip -->
<g id="edge41" class="edge">
<title>[root] root&#45;&gt;[root] output.EC201&#45;private_ip</title>
<path fill="none" stroke="black" d="M686.57,-735.42C569.32,-731.01 272.12,-716.7 242.77,-684 227.21,-666.67 238.36,-640.96 251.25,-621.63"/>
<polygon fill="black" stroke="black" points="253.97,-623.85 256.93,-613.68 248.27,-619.78 253.97,-623.85"/>
</g>
<!-- [root] root&#45;&gt;[root] output.EC202&#45;instance_id -->
<g id="edge42" class="edge">
<title>[root] root&#45;&gt;[root] output.EC202&#45;instance_id</title>
<path fill="none" stroke="black" d="M733.53,-719.85C733.01,-683.14 731.8,-596.66 731.17,-551.53"/>
<polygon fill="black" stroke="black" points="734.67,-551.7 731.03,-541.75 727.67,-551.79 734.67,-551.7"/>
</g>
<!-- [root] root&#45;&gt;[root] output.EC202&#45;private_ip -->
<g id="edge43" class="edge">
<title>[root] root&#45;&gt;[root] output.EC202&#45;private_ip</title>
<path fill="none" stroke="black" d="M743.53,-720.08C754.33,-701.78 772.62,-672 790.77,-648 797.82,-638.68 806.11,-628.98 813.74,-620.46"/>
<polygon fill="black" stroke="black" points="816.22,-622.95 820.37,-613.2 811.04,-618.23 816.22,-622.95"/>
</g>
<!-- [root] root&#45;&gt;[root] var.security_groups -->
<g id="edge45" class="edge">
<title>[root] root&#45;&gt;[root] var.security_groups</title>
<path fill="none" stroke="black" d="M759.98,-722.67C777.29,-713.2 800.36,-700.58 820.15,-689.76"/>
<polygon fill="black" stroke="black" points="821.74,-692.88 828.83,-685.01 818.38,-686.74 821.74,-692.88"/>
</g>
<!-- [root] root&#45;&gt;[root] var.subnet_id -->
<g id="edge46" class="edge">
<title>[root] root&#45;&gt;[root] var.subnet_id</title>
<path fill="none" stroke="black" d="M772.45,-727.31C810.39,-717.67 870.11,-702.14 930.18,-684.7"/>
<polygon fill="black" stroke="black" points="930.93,-688.12 939.54,-681.96 928.96,-681.4 930.93,-688.12"/>
</g>
<!-- [root] root&#45;&gt;[root] provider[&quot;registry.terraform.io/hashicorp/aws&quot;] (close) -->
<g id="edge44" class="edge">
<title>[root] root&#45;&gt;[root] provider[&quot;registry.terraform.io/hashicorp/aws&quot;] (close)</title>
<path fill="none" stroke="black" d="M696.14,-726.67C657.97,-716.19 597.93,-699.71 550.61,-686.72"/>
<polygon fill="black" stroke="black" points="551.83,-683.43 541.26,-684.15 549.98,-690.18 551.83,-683.43"/>
</g>
</g>
</svg>
